<svg width="256" height="256" viewBox="0 0 256 256" fill="none" xmlns="http://www.w3.org/2000/svg">
  <rect width="256" height="256" rx="56" fill="#102027"/>
  <rect x="32" y="32" width="192" height="192" rx="40" fill="url(#paint0_linear)"/>
  <path d="M86 91C86 74.4315 99.4315 61 116 61H140C156.569 61 170 74.4315 170 91V101H86V91Z" fill="#F8FAFC"/>
  <path d="M76 121C76 109.954 84.9543 101 96 101H160C171.046 101 180 109.954 180 121V148C180 176.719 156.719 200 128 200C99.2812 200 76 176.719 76 148V121Z" fill="#F8FAFC"/>
  <circle cx="108" cy="126" r="9" fill="#0F766E"/>
  <circle cx="148" cy="126" r="9" fill="#0F766E"/>
  <path d="M110 161C115.333 166.333 123.467 169 128 169C132.533 169 140.667 166.333 146 161" stroke="#0F766E" stroke-width="10" stroke-linecap="round"/>
  <path d="M78 136C60.3269 136 46 121.673 46 104C46 86.3269 60.3269 72 78 72H88V136H78Z" fill="#E9DFC7"/>
  <path d="M178 136C195.673 136 210 121.673 210 104C210 86.3269 195.673 72 178 72H168V136H178Z" fill="#E9DFC7"/>
  <defs>
    <linearGradient id="paint0_linear" x1="32" y1="32" x2="224" y2="224" gradientUnits="userSpaceOnUse">
      <stop stop-color="#E9DFC7"/>
      <stop offset="1" stop-color="#C76B50"/>
    </linearGradient>
  </defs>
</svg>
